<svg id="Calque_1" data-name="Calque 1" xmlns="http://www.w3.org/2000/svg" xmlns:xlink="http://www.w3.org/1999/xlink" viewBox="0 0 61.1 94"><defs><style>.cls-1{fill:#35ffa4;}.cls-2{fill:#4900bc;}.cls-3{clip-path:url(#clip-path);}.cls-4{fill:#fff;}.cls-5{fill:#fb64ff;}</style><clipPath id="clip-path" transform="translate(-19.42 -3.27)"><circle class="cls-1" cx="49.97" cy="33.41" r="18.02"/></clipPath></defs><title>marker</title><path class="cls-2" d="M80.52,33.82A30.55,30.55,0,1,0,24.39,50.54,319.51,319.51,0,0,1,48,93L50,97.27l1.39-3a302,302,0,0,1,24-43.39A30.43,30.43,0,0,0,80.52,33.82Z" transform="translate(-19.42 -3.27)"/><circle class="cls-1" cx="30.55" cy="30.14" r="18.02"/><g class="cls-3"><polygon points="24.63 19.71 12.54 32.01 10.4 41.05 21.54 55.27 30.08 50.53 38.38 38.44 34.58 28.25 36.24 25.64 24.63 19.71"/></g><path class="cls-4" d="M41.31,43.26l2.74-6.33a9.5,9.5,0,0,0,5,1.72c1.28,0,2-.48,2-1.21,0-2.5-9-1.8-9.11-8.85,0-4.34,3.35-7.48,8.25-7.54a13.15,13.15,0,0,1,7.36,2.24l-2.27,5.35a7.27,7.27,0,0,0-4-1.41c-1.15,0-1.73.5-1.73,1.13,0,2.46,8.85,1.66,8.94,9.06.05,4.76-3.56,8-9,8A15.83,15.83,0,0,1,41.31,43.26Z" transform="translate(-19.42 -3.27)"/><path class="cls-1" d="M53.62,41.13l2.22,2.19a10,10,0,0,1-6.44,2.13,15.83,15.83,0,0,1-8.09-2.19l3.81-1.44a11.89,11.89,0,0,0,4.18.71A6.67,6.67,0,0,0,53.62,41.13Zm-2.93-4.41L53,35c-1.48-1.38-4.19-1.93-6-3.2L44.6,33.7C46.81,35.23,49.74,35.69,50.69,36.72Zm-.91-9.06-2.25-2.2a5,5,0,0,1,2.84-.83,9.81,9.81,0,0,1,3.13.62l1.74,3.39a7.27,7.27,0,0,0-4-1.41A2.1,2.1,0,0,0,49.78,27.66Z" transform="translate(-19.42 -3.27)"/><path class="cls-5" d="M50.69,36.71,53,35a3.22,3.22,0,0,1,1.14,2.52c0,2.33-1.9,4-5,4.06a10.86,10.86,0,0,1-3.7-.65l-.4.91-3.81,1.43,2.74-6.32a9.39,9.39,0,0,0,5,1.71c1.28,0,2-.47,2-1.2A1,1,0,0,0,50.69,36.71Zm-6.09-3L47,31.79a4.1,4.1,0,0,1-1.95-3.52c0-2.75,2.06-4.58,5.26-4.62a9.71,9.71,0,0,1,3.48.62l3.71-1a13.08,13.08,0,0,0-7.36-2.24c-4.9.06-8.3,3.19-8.25,7.53A5.93,5.93,0,0,0,44.6,33.69Zm5.48-4.37-2.24,1.76c1.72,1.2,4.43,1.76,6,3.27l2.48-1.74C54.37,30.76,51.34,30.24,50.08,29.32Z" transform="translate(-19.42 -3.27)"/><path class="cls-2" d="M58.86,37.54c.06,5-3.76,8.42-9.45,8.49a17.12,17.12,0,0,1-8.68-2.47l3.11-7.16A9.64,9.64,0,0,0,49,38.32c1,0,1.56-.29,1.56-.78,0-1.91-9-1.73-9.11-8.82-.05-4.62,3.56-7.93,8.7-8a13.38,13.38,0,0,1,7.91,2.55l-2.57,6A8.06,8.06,0,0,0,51.2,27.8c-.8,0-1.28.26-1.27.68C50,30.29,58.77,30.11,58.86,37.54ZM45.14,40.87l-1.07-2.7-2,4.65,2.7-1.15Zm4.26,4.29a9.59,9.59,0,0,0,5.88-1.84l-1.62-1.58a7.16,7.16,0,0,1-4.36,1.34,12.59,12.59,0,0,1-4.49-.82l-2.63,1.11A14.69,14.69,0,0,0,49.4,45.16ZM44.77,33.34,46.46,32a4.4,4.4,0,0,1-1.78-3.6,4.6,4.6,0,0,1,1.66-3.7L44.9,23.29a6.55,6.55,0,0,0-2.54,5.42A5.44,5.44,0,0,0,44.77,33.34ZM49,39.19a9.7,9.7,0,0,1-4.46-1.3l1.11,2.73a12.13,12.13,0,0,0,3.55.65,5.79,5.79,0,0,0,3.19-.87l-1.65-1.61A3.52,3.52,0,0,1,49,39.19Zm1.84-2.84,1.66-1.16C51.07,34.06,48.7,33.5,47,32.34l-1.69,1.3C47.26,34.87,49.77,35.36,50.85,36.35Zm4.22,1.27C55,32,46,33.43,46,28.35c0-2.18,1.73-3.7,4.41-3.73a8.39,8.39,0,0,1,3,.55l.2-.69a8.78,8.78,0,0,0-3.24-.56c-3,0-5.08,1.84-5,4.48.07,5.52,9,4,9.11,9.23,0,2.47-2,4.16-5.16,4.2a11,11,0,0,1-3.59-.62l-.27.66a12.26,12.26,0,0,0,3.94.65C52.8,42.48,55.11,40.51,55.07,37.62Zm-4.91-16A8.69,8.69,0,0,0,45.38,23l1.41,1.37a6.58,6.58,0,0,1,3.53-1,11,11,0,0,1,3.76.68l2.45-.72A11.34,11.34,0,0,0,50.16,21.6ZM49,28.49a1.54,1.54,0,0,1,.24-.8L47.6,26a2.8,2.8,0,0,0-1,2.31,2.9,2.9,0,0,0,1.34,2.41l1.59-1.2A1.62,1.62,0,0,1,49,28.49Zm2.17-1.55a8,8,0,0,1,3.31.82l-1.1-2a8.94,8.94,0,0,0-3-.56,5,5,0,0,0-2.32.55l1.62,1.58A3.16,3.16,0,0,1,51.19,26.94Zm4.56,5.88c-1.86-1.47-4.44-2-5.81-2.92l-1.55,1.2c1.65,1,4,1.59,5.63,3Zm-4.29,4.71a1.3,1.3,0,0,1-.3.87L52.84,40a3.23,3.23,0,0,0,.95-2.37,2.82,2.82,0,0,0-.86-2.07l-1.69,1.2A1.46,1.46,0,0,1,51.46,37.53Zm2.46-12.09,1.21,2.35,1.76-4-2.74.83Zm4,12.12a5.87,5.87,0,0,0-1.79-4.36l-1.72,1.27a4.37,4.37,0,0,1,1.21,3.15,5,5,0,0,1-1.55,3.77l1.62,1.54A6.94,6.94,0,0,0,58,37.56Z" transform="translate(-19.42 -3.27)"/></svg>